<?xml version="1.0" standalone="no"?>
<!DOCTYPE svg PUBLIC "-//W3C//DTD SVG 20010904//EN"
 "http://www.w3.org/TR/2001/REC-SVG-20010904/DTD/svg10.dtd">
<svg version="1.0" xmlns="http://www.w3.org/2000/svg"
 width="500.000000pt" height="599.000000pt" viewBox="0 0 500.000000 599.000000"
 preserveAspectRatio="xMidYMid meet">

<g transform="translate(0.000000,599.000000) scale(0.100000,-0.100000)"
fill="#000000" stroke="none">
<path d="M3243 5898 c-64 -279 -115 -485 -123 -500 -6 -10 -10 -32 -10 -49 0
-33 -42 -223 -67 -301 -15 -50 -17 -51 -84 -48 -85 4 -184 -80 -246 -208 -64
-133 -58 -246 19 -339 24 -28 54 -69 67 -91 17 -28 40 -48 77 -66 64 -32 61
-7 35 -294 -23 -246 -35 -467 -21 -407 5 22 9 65 9 95 1 64 40 490 46 505 3 6
3 -46 1 -115 -2 -69 -1 -100 2 -70 l7 55 8 -79 c4 -43 8 -106 8 -140 1 -34 5
-74 9 -91 8 -32 10 -29 16 25 2 19 10 85 18 145 l14 110 -4 -130 c-3 -71 -6
-150 -9 -175 -3 -33 -1 -40 6 -25 6 13 8 -21 5 -100 l-5 -120 15 120 c8 66 18
165 23 220 7 83 8 64 6 -110 -3 -150 -1 -191 5 -145 5 36 10 87 11 113 3 56
19 75 19 22 0 -22 4 -34 10 -30 16 10 11 -22 -10 -62 -16 -33 -18 -44 -8 -78
16 -57 22 -205 9 -205 -6 0 -11 -13 -11 -30 0 -16 -4 -30 -9 -30 -15 0 -31
-59 -31 -111 0 -50 16 -75 23 -37 2 13 5 -8 6 -46 0 -42 -5 -87 -16 -115 -11
-33 -14 -56 -8 -76 9 -29 9 -28 15 20 l7 50 3 -60 c3 -58 3 -59 10 -20 4 22 8
30 9 18 0 -13 4 -23 9 -23 4 0 7 57 6 128 0 70 3 154 6 187 l7 60 3 -75 c2
-70 3 -65 16 70 8 80 19 192 24 250 9 104 9 103 4 -35 -3 -77 -7 -286 -10
-465 -3 -179 -9 -383 -14 -455 -5 -71 -7 -348 -5 -615 2 -267 0 -525 -4 -575
-7 -82 -8 -74 -11 100 -1 105 -6 174 -10 155 -6 -35 -4 336 4 630 2 85 1 142
-4 125 -6 -24 -8 -26 -9 -7 0 12 -5 22 -11 22 -5 0 -12 27 -16 60 -10 93 -26
71 -22 -33 1 -50 -1 -110 -6 -133 -6 -32 -5 -44 8 -57 9 -8 16 -32 16 -52 0
-37 -24 -95 -39 -95 -14 0 -34 -88 -29 -128 3 -20 22 -71 43 -112 30 -61 38
-90 42 -152 5 -72 4 -79 -21 -108 -22 -27 -26 -41 -26 -99 0 -38 -2 -95 -4
-127 -2 -32 -2 -47 1 -31 2 15 8 27 14 27 5 0 6 -26 3 -62 -3 -35 -7 -141 -7
-235 -1 -95 -5 -173 -9 -173 -5 0 -9 82 -10 183 -2 169 -2 174 -8 72 -6 -115
-8 -118 -15 -22 -2 33 -7 62 -11 65 -4 4 -4 -58 -1 -138 5 -130 4 -141 -8
-105 l-13 40 -1 -37 c-1 -23 -6 -38 -13 -38 -10 0 -12 30 -10 122 2 68 -1 150
-6 183 -7 46 -8 28 -5 -80 3 -96 1 -135 -5 -126 -7 10 -10 -19 -10 -97 1 -62
-2 -115 -6 -120 -4 -4 -7 -2 -6 3 1 6 2 69 1 140 -1 90 -4 125 -11 115 -6 -9
-8 -82 -5 -190 6 -207 -8 -192 -19 20 -4 80 -11 163 -16 185 l-9 40 4 -40 c3
-22 6 -173 9 -335 5 -326 1 -283 -29 300 l-14 275 6 -215 c2 -118 8 -271 13
-340 4 -69 6 -127 3 -130 -2 -3 -41 -8 -86 -11 -60 -4 -88 -2 -104 8 -24 14
-31 47 -13 58 19 12 11 74 -10 87 -11 7 -20 21 -20 30 0 26 -35 40 -85 33 -24
-4 -67 -2 -95 4 -35 8 -63 8 -84 2 -17 -5 -70 -15 -118 -21 -111 -13 -118 -16
-125 -52 -8 -40 -42 -59 -116 -65 -61 -5 -127 12 -142 37 -3 5 -26 10 -49 10
-71 0 -72 -5 -46 -203 28 -211 27 -206 29 -240 0 -16 5 -25 11 -22 6 3 7 -1 4
-10 -9 -23 17 -235 28 -235 6 0 8 7 4 15 -3 8 -1 15 4 15 6 0 10 -7 10 -15 0
-13 18 -15 110 -14 80 1 108 4 103 12 -5 8 -2 8 8 0 9 -7 43 -11 87 -10 64 2
72 4 68 20 -2 9 0 17 5 17 4 0 6 7 3 15 -4 11 -2 13 9 10 9 -4 16 1 20 14 3
15 1 18 -12 14 -9 -3 -5 3 9 13 14 10 28 22 31 27 4 5 12 0 19 -12 10 -20 9
-23 -9 -28 -18 -5 -26 -20 -22 -45 0 -4 -7 -5 -17 -2 -15 5 -15 4 1 -6 18 -12
31 -7 33 11 3 22 5 23 13 11 6 -11 12 -10 25 5 67 72 100 101 108 97 4 -3 1
-12 -7 -20 -23 -23 -37 -53 -30 -64 11 -18 -5 -31 -25 -20 -13 7 -22 6 -32 -3
-7 -7 -33 -23 -58 -34 l-45 -22 1378 0 1377 -1 0 339 0 339 -52 5 c-29 3 -64
8 -78 12 -69 17 -131 17 -175 1 -25 -10 -45 -21 -45 -24 0 -4 -15 -13 -32 -21
-18 -8 -50 -22 -70 -31 -31 -15 -36 -15 -30 -2 4 11 2 13 -9 7 -12 -8 -12 -6
0 8 8 10 12 19 10 21 -2 2 -33 11 -69 20 -36 9 -83 25 -105 35 -22 10 -62 23
-88 30 -51 12 -69 24 -80 54 -9 23 -21 22 -104 -13 -43 -18 -96 -32 -130 -34
-32 -2 -70 -9 -85 -14 -14 -6 -55 -14 -89 -18 -76 -8 -104 -32 -86 -72 9 -20
8 -26 -8 -38 -11 -7 -26 -19 -34 -25 -40 -35 -175 -25 -184 13 -7 24 -97 27
-97 3 0 -8 -4 -15 -8 -15 -14 0 -22 302 -22 839 0 752 26 1365 91 2161 24 302
38 448 45 481 4 22 14 29 52 40 26 7 65 14 87 17 66 7 132 41 180 94 55 61 96
177 97 272 0 59 -4 73 -51 159 -54 101 -112 163 -194 211 l-48 28 6 107 c4 58
11 124 16 146 11 49 12 112 2 118 -5 2 -2 2 5 1 6 -2 12 2 12 9 1 25 20 156
40 282 11 72 23 150 26 175 3 25 9 54 14 65 5 11 11 45 15 75 3 30 9 72 12 93
l5 37 -55 0 c-55 0 -56 0 -60 -32 l-4 -33 -1 33 -2 32 -178 0 -177 0 -22 -92z
m125 71 c-10 -5 -18 -19 -18 -29 0 -10 -4 -21 -10 -25 -5 -3 -7 -12 -4 -20 4
-8 -6 -19 -24 -29 -26 -13 -29 -13 -29 2 0 9 10 24 21 34 15 12 17 17 7 18
-11 0 -10 4 5 16 16 13 16 15 2 10 -30 -9 -20 4 15 19 37 16 60 19 35 4z m320
-9 c11 -18 10 -20 -8 -20 -13 0 -20 7 -20 20 0 11 3 20 8 20 4 0 13 -9 20 -20z
m26 -55 c-4 -8 -13 -15 -20 -15 -12 0 -12 3 -2 15 17 19 29 19 22 0z m-10 -47
c-3 -5 -12 -4 -20 3 -19 16 -18 18 6 12 11 -3 17 -9 14 -15z m-346 -3 c-8 -8
-68 -25 -68 -19 0 6 41 23 59 23 8 1 12 -1 9 -4z m342 -24 c0 -6 -4 -13 -10
-16 -5 -3 -10 1 -10 9 0 9 5 16 10 16 6 0 10 -4 10 -9z m-370 -18 c0 -1 -10
-12 -22 -24 -20 -19 -21 -21 -4 -15 19 7 19 6 3 -12 -10 -11 -15 -26 -11 -36
4 -11 -3 -27 -22 -47 l-29 -30 28 10 c40 16 41 14 10 -15 -18 -16 -22 -24 -10
-20 27 9 20 -2 -14 -20 -17 -8 -28 -11 -25 -5 4 6 2 11 -5 11 -10 0 -10 3 -1
12 19 19 14 32 -5 17 -10 -7 -8 -2 5 12 24 28 29 44 10 34 -7 -4 1 5 17 19 20
17 25 26 15 27 -10 0 -11 2 -2 6 6 2 12 9 12 14 0 6 -8 6 -19 -1 -33 -17 -33
-11 0 29 18 23 39 39 50 38 10 -1 19 -2 19 -4z m217 -15 c-3 -8 -6 -5 -6 6 -1
11 2 17 5 13 3 -3 4 -12 1 -19z m-46 -11 c-10 -9 -11 -8 -5 6 3 10 9 15 12 12
3 -3 0 -11 -7 -18z m116 -59 c-3 -8 -6 -5 -6 6 -1 11 2 17 5 13 3 -3 4 -12 1
-19z m-60 -20 c-3 -7 -5 -2 -5 12 0 14 2 19 5 13 2 -7 2 -19 0 -25z m93 22 c0
-5 -4 -10 -10 -10 -5 0 -10 5 -10 10 0 6 5 10 10 10 6 0 10 -4 10 -10z m14
-82 c-4 -18 -8 -48 -8 -65 0 -33 -9 -42 -21 -23 -3 6 -1 10 6 10 7 0 5 8 -6
20 -16 18 -16 20 -2 20 15 0 23 29 18 63 0 4 4 7 10 7 7 0 8 -11 3 -32z m-398
-75 c0 -10 -12 -26 -26 -35 -38 -27 -49 -21 -15 9 28 25 28 25 5 19 l-25 -7
25 15 c33 20 38 20 36 -1z m241 -30 c-3 -10 -5 -4 -5 12 0 17 2 24 5 18 2 -7
2 -21 0 -30z m-30 -60 c-3 -10 -5 -4 -5 12 0 17 2 24 5 18 2 -7 2 -21 0 -30z
m-247 21 c0 -4 -8 -13 -17 -21 -16 -13 -16 -14 -2 -10 15 5 15 3 2 -24 -18
-36 -27 -38 -19 -4 4 16 2 25 -5 25 -7 0 -5 8 6 20 18 20 35 26 35 14z m407
-76 c-3 -8 -6 -5 -6 6 -1 11 2 17 5 13 3 -3 4 -12 1 -19z m-427 -41 c0 -13 -5
-28 -12 -35 -9 -9 -9 -12 2 -12 10 0 8 -5 -5 -20 -9 -10 -15 -26 -12 -34 3 -8
3 -17 -1 -21 -10 -10 -8 -49 3 -58 6 -4 3 -12 -7 -21 -10 -7 -18 -21 -18 -30
0 -9 -7 -19 -15 -22 -11 -5 -12 -11 -4 -25 8 -15 6 -19 -7 -19 -10 0 -14 -5
-11 -15 7 -17 -8 -29 -23 -20 -8 5 -7 11 1 21 6 8 8 14 4 14 -4 0 -2 6 4 14
10 11 8 15 -6 18 -14 3 -11 8 15 21 37 20 42 31 10 22 l-23 -6 22 17 c19 14
20 18 9 30 -16 15 -11 50 10 75 8 9 11 18 8 21 -3 4 2 20 11 38 9 18 14 34 11
38 -7 6 13 32 25 32 5 0 9 -10 9 -23z m420 3 c0 -5 -5 -10 -11 -10 -5 0 -7 5
-4 10 3 6 8 10 11 10 2 0 4 -4 4 -10z m-9 -47 c-12 -20 -14 -14 -5 12 4 9 9
14 11 11 3 -2 0 -13 -6 -23z m-8 -48 c-3 -9 -8 -14 -10 -11 -3 3 -2 9 2 15 9
16 15 13 8 -4z m-50 -30 c4 -8 3 -16 -1 -19 -4 -3 -9 4 -9 15 -2 23 3 25 10 4z
m38 -72 c-12 -20 -14 -14 -5 12 4 9 9 14 11 11 3 -2 0 -13 -6 -23z m-9 -45
c-7 -7 -12 -8 -12 -2 0 14 12 26 19 19 2 -3 -1 -11 -7 -17z m-105 -150 c-3 -7
-5 -2 -5 12 0 14 2 19 5 13 2 -7 2 -19 0 -25z m122 -354 c38 -49 20 -80 -30
-54 -13 8 -19 21 -19 45 0 43 20 46 49 9z m-641 -211 c-12 -98 -18 -109 -12
-24 4 65 9 91 18 91 1 0 -1 -30 -6 -67z m-11 -205 c-2 -13 -4 -5 -4 17 -1 22
1 32 4 23 2 -10 2 -28 0 -40z m140 -135 c-3 -10 -5 -2 -5 17 0 19 2 27 5 18 2
-10 2 -26 0 -35z m113 -145 c-7 -95 -15 -175 -17 -178 -6 -5 2 169 13 288 13
139 16 62 4 -110z m-213 -45 c-2 -21 -4 -6 -4 32 0 39 2 55 4 38 2 -18 2 -50
0 -70z m110 55 c-3 -8 -6 -5 -6 6 -1 11 2 17 5 13 3 -3 4 -12 1 -19z m-30 -10
c-3 -8 -6 -5 -6 6 -1 11 2 17 5 13 3 -3 4 -12 1 -19z m110 -305 c-2 -21 -4 -6
-4 32 0 39 2 55 4 38 2 -18 2 -50 0 -70z m-80 -440 c-2 -16 -4 -3 -4 27 0 30
2 43 4 28 2 -16 2 -40 0 -55z m-10 -160 c-2 -21 -4 -4 -4 37 0 41 2 58 4 38 2
-21 2 -55 0 -75z m190 -180 c-3 -10 -5 -2 -5 17 0 19 2 27 5 18 2 -10 2 -26 0
-35z m20 -60 c-2 -16 -4 -5 -4 22 0 28 2 40 4 28 2 -13 2 -35 0 -50z m-48 -30
c1 31 21 38 21 6 0 -11 4 -18 9 -14 5 3 11 -3 14 -12 2 -13 7 -7 15 17 10 31
10 27 5 -30 -3 -36 -9 -67 -14 -70 -4 -3 -12 -70 -17 -150 l-9 -145 -3 105
c-2 58 -5 84 -7 58 -4 -45 -22 -68 -24 -30 -1 11 -4 9 -9 -8 -7 -23 -8 -23
-10 10 -2 33 -2 34 -11 10 -12 -35 -1 160 14 235 11 58 12 59 18 25 6 -31 7
-32 8 -7z m-72 -20 c-3 -10 -5 -4 -5 12 0 17 2 24 5 18 2 -7 2 -21 0 -30z
m160 -5 c-3 -8 -6 -5 -6 6 -1 11 2 17 5 13 3 -3 4 -12 1 -19z m-10 -65 c-3
-10 -5 -4 -5 12 0 17 2 24 5 18 2 -7 2 -21 0 -30z m-140 -105 c-2 -24 -4 -7
-4 37 0 44 2 63 4 43 2 -21 2 -57 0 -80z m10 -155 c-3 -10 -5 -2 -5 17 0 19 2
27 5 18 2 -10 2 -26 0 -35z m-109 -155 c0 -49 -2 -67 -8 -53 -14 33 -10 125 5
125 2 0 3 -33 3 -72z m199 -100 c-2 -18 -4 -6 -4 27 0 33 2 48 4 33 2 -15 2
-42 0 -60z m-190 -60 c-2 -13 -4 -5 -4 17 -1 22 1 32 4 23 2 -10 2 -28 0 -40z
m-50 -195 c-2 -27 -3 -5 -3 47 0 52 1 74 3 48 2 -27 2 -69 0 -95z m30 -95 c-2
-13 -4 -5 -4 17 -1 22 1 32 4 23 2 -10 2 -28 0 -40z m220 -30 c-2 -13 -4 -5
-4 17 -1 22 1 32 4 23 2 -10 2 -28 0 -40z m-200 -260 c-3 -8 -6 -5 -6 6 -1 11
2 17 5 13 3 -3 4 -12 1 -19z m-23 -213 l5 -110 -9 90 c-5 50 -11 103 -14 120
-4 20 -3 26 4 19 5 -5 12 -59 14 -119z m28 15 c3 -25 2 -56 -2 -70 -7 -20 -8
-16 -9 21 -1 26 -4 62 -7 80 -5 23 -3 31 3 24 6 -5 13 -30 15 -55z m41 -230
c4 -88 3 -134 -3 -117 -8 27 -14 130 -11 221 2 88 8 44 14 -104z m-126 -142
c-3 -7 -5 -2 -5 12 0 14 2 19 5 13 2 -7 2 -19 0 -25z m50 -25 c-3 -10 -5 -2
-5 17 0 19 2 27 5 18 2 -10 2 -26 0 -35z m90 -65 c-2 -13 -4 -3 -4 22 0 25 2
35 4 23 2 -13 2 -33 0 -45z m-90 -25 c-3 -10 -5 -4 -5 12 0 17 2 24 5 18 2 -7
2 -21 0 -30z m-118 -155 c-1 -90 -3 -156 -5 -148 -7 32 -9 310 -2 310 5 0 7
-73 7 -162z m18 55 c-2 -21 -4 -6 -4 32 0 39 2 55 4 38 2 -18 2 -50 0 -70z
m70 45 c-3 -8 -6 -5 -6 6 -1 11 2 17 5 13 3 -3 4 -12 1 -19z m6 -55 c4 -19 2
-33 -3 -33 -6 0 -10 17 -10 37 0 43 5 41 13 -4z m-66 -120 c-2 -16 -4 -3 -4
27 0 30 2 43 4 28 2 -16 2 -40 0 -55z m32 -10 c-1 -65 -3 -78 -8 -48 -6 39 -3
135 5 135 2 0 3 -39 3 -87z m18 55 c-3 -8 -6 -5 -6 6 -1 11 2 17 5 13 3 -3 4
-12 1 -19z m941 -3 c-3 -3 -9 2 -12 12 -6 14 -5 15 5 6 7 -7 10 -15 7 -18z
m-1721 -7 c-3 -8 -6 -5 -6 6 -1 11 2 17 5 13 3 -3 4 -12 1 -19z m814 -193 c-3
-66 -7 -105 -9 -87 -2 17 -7 32 -13 32 -5 0 -8 21 -8 48 l2 47 7 -40 c5 -28 8
-3 10 85 2 83 5 110 9 80 3 -25 4 -99 2 -165z m1374 187 c-3 -3 -11 0 -18 7
-9 10 -8 11 6 5 10 -3 15 -9 12 -12z m-2435 2 c0 -8 -32 -33 -42 -34 -4 0 -5
7 -2 15 4 8 10 12 15 9 5 -3 9 0 9 5 0 6 5 11 10 11 6 0 10 -3 10 -6z m2483
-1 c-7 -2 -19 -2 -25 0 -7 3 -2 5 12 5 14 0 19 -2 13 -5z m-539 -19 c3 -8 2
-12 -4 -9 -6 3 -10 10 -10 16 0 14 7 11 14 -7z m-1039 -56 c4 -21 11 -36 15
-33 12 7 18 -37 23 -160 3 -68 2 -87 -4 -60 -4 22 -8 68 -8 102 -1 47 -4 61
-14 57 -15 -5 -37 67 -37 124 0 45 16 27 25 -30z m1555 47 c4 3 14 -3 21 -13
13 -15 12 -16 -3 -3 -15 11 -18 11 -18 0 0 -11 -2 -11 -10 1 -5 8 -9 20 -9 25
0 6 3 4 6 -3 2 -6 8 -10 13 -7z m-210 -15 c0 -5 -2 -10 -4 -10 -3 0 -8 5 -11
10 -3 6 -1 10 4 10 6 0 11 -4 11 -10z m135 -10 c16 0 17 -2 5 -10 -21 -14 -23
-13 -39 13 -10 17 -11 19 0 10 7 -7 22 -13 34 -13z m-2472 -15 c-4 -11 0 -14
13 -9 16 5 16 4 4 -5 -11 -8 -18 -7 -26 3 -13 18 -47 16 -56 -4 -6 -11 -7 -10
-5 4 1 12 11 20 24 21 13 1 26 5 29 8 11 11 23 -3 17 -18z m2422 14 c11 -17
-1 -21 -15 -4 -8 9 -8 15 -2 15 6 0 14 -5 17 -11z m-475 -20 c0 -6 -4 -7 -10
-4 -5 3 -10 11 -10 16 0 6 5 7 10 4 6 -3 10 -11 10 -16z m-893 -26 c-3 -10 -5
-4 -5 12 0 17 2 24 5 18 2 -7 2 -21 0 -30z m1298 19 c-3 -3 -11 0 -18 7 -9 10
-8 11 6 5 10 -3 15 -9 12 -12z m50 8 c3 -5 1 -10 -4 -10 -6 0 -11 5 -11 10 0
6 2 10 4 10 3 0 8 -4 11 -10z m-2520 -9 c3 -5 2 -12 -3 -15 -5 -3 -9 1 -9 9 0
17 3 19 12 6z m2445 -5 c0 -3 -4 -8 -10 -11 -5 -3 -10 -1 -10 4 0 6 5 11 10
11 6 0 10 -2 10 -4z m-630 -42 c0 -3 -7 -1 -15 6 -8 7 -15 17 -15 22 0 5 7 3
15 -6 8 -8 15 -18 15 -22z m-1743 20 c-3 -3 -12 -4 -19 -1 -8 3 -5 6 6 6 11 1
17 -2 13 -5z m-87 -35 c0 -6 -4 -7 -10 -4 -5 3 -10 11 -10 16 0 6 5 7 10 4 6
-3 10 -11 10 -16z m190 -13 c0 -2 -8 -7 -17 -10 -10 -4 -14 -4 -10 0 4 4 1 14
-6 22 -10 13 -9 14 11 3 12 -6 22 -13 22 -15z m1049 -41 c1 -16 -1 -17 -9 -5
-5 8 -9 29 -9 45 1 29 1 29 9 5 4 -14 8 -34 9 -45z m-740 28 c2 -2 -3 -3 -11
-3 -9 0 -19 7 -22 16 -6 15 -4 15 11 3 10 -7 20 -15 22 -16z m-484 -25 c6 -4
2 -8 -7 -8 -10 0 -18 7 -18 17 0 9 3 12 8 7 4 -5 12 -12 17 -16z m519 6 c3 -8
2 -12 -4 -9 -6 3 -10 1 -10 -5 0 -6 -4 -9 -9 -6 -5 4 -12 0 -14 -6 -3 -8 -6
-7 -6 4 -1 13 19 34 35 38 1 0 5 -7 8 -16z m534 -9 c0 -30 -7 -28 -13 4 -2 11
0 21 4 21 5 0 9 -11 9 -25z m54 -47 c-5 -113 -9 -125 -10 -30 -1 50 1 92 6 92
4 0 6 -28 4 -62z m55 40 c-3 -8 -6 -5 -6 6 -1 11 2 17 5 13 3 -3 4 -12 1 -19z
m-1172 -18 c3 -5 1 -10 -4 -10 -6 0 -11 5 -11 10 0 6 2 10 4 10 3 0 8 -4 11
-10z m466 -37 c-8 -15 -9 -12 -7 12 5 39 7 44 13 23 2 -10 0 -25 -6 -35z m666
-15 c-2 -13 -4 -5 -4 17 -1 22 1 32 4 23 2 -10 2 -28 0 -40z m-802 28 c11 1
29 5 40 9 17 6 17 5 -3 -9 -12 -10 -26 -15 -31 -11 -5 3 -13 1 -16 -5 -5 -8
-11 -7 -21 1 -8 6 -14 8 -14 5 0 -4 -5 -4 -10 -1 -17 10 0 26 18 17 9 -5 26
-7 37 -6z m1755 10 c0 -9 -30 -14 -35 -6 -4 6 3 10 14 10 12 0 21 -2 21 -4z
m-1845 -16 c-3 -5 -14 -14 -24 -19 -13 -7 -18 -6 -18 4 0 7 6 11 13 8 6 -2 15
0 19 6 3 6 8 11 11 11 3 0 2 -4 -1 -10z m-58 -16 c-3 -3 -12 -4 -19 -1 -8 3
-5 6 6 6 11 1 17 -2 13 -5z m912 -27 c-1 -20 -2 -20 -9 3 -8 25 -8 25 -10 -5
-2 -19 -4 -23 -7 -12 -6 24 4 50 17 42 5 -3 10 -16 9 -28z m-803 -15 c-17 -16
-18 -16 -5 5 7 12 15 20 18 17 3 -2 -3 -12 -13 -22z m504 8 c0 -5 -5 -10 -11
-10 -5 0 -7 5 -4 10 3 6 8 10 11 10 2 0 4 -4 4 -10z m-718 -19 c-9 -9 -26 -15
-37 -13 -17 3 -17 2 -5 -7 13 -9 12 -11 -5 -12 -11 0 -14 -3 -7 -6 13 -5 7
-23 -9 -23 -5 0 -9 17 -9 38 l0 38 44 1 c42 1 44 0 28 -16z m607 -18 c-7 -10
-14 -19 -15 -21 -1 -1 -7 5 -15 15 -12 15 -12 16 3 10 10 -3 20 -2 23 3 4 6 9
10 12 10 3 0 -1 -8 -8 -17z m558 -45 c-2 -13 -4 -3 -4 22 0 25 2 35 4 23 2
-13 2 -33 0 -45z m358 34 c-8 -2 -15 -8 -15 -13 0 -6 -4 -7 -10 -4 -5 3 -10
14 -10 25 0 16 3 17 25 7 17 -8 20 -13 10 -15z m100 -1 c-3 -6 -11 -11 -16
-11 -5 0 -4 6 3 14 14 16 24 13 13 -3z m-625 -1 c0 -5 -5 -10 -11 -10 -5 0 -7
5 -4 10 3 6 8 10 11 10 2 0 4 -4 4 -10z m-424 -23 c1 -9 -2 -15 -6 -12 -21 13
-18 -15 4 -32 17 -14 22 -24 15 -34 -7 -11 -9 -11 -9 3 0 12 -8 16 -30 16 -17
-1 -28 -3 -26 -6 3 -2 -7 -15 -21 -28 -13 -12 -22 -28 -18 -33 3 -7 0 -8 -9
-5 -9 3 -16 1 -16 -6 0 -6 -4 -8 -10 -5 -16 10 -12 45 5 39 16 -7 65 38 65 59
0 8 12 22 26 32 21 14 24 19 13 27 -12 8 -12 9 0 6 8 -2 15 -12 17 -21z m176
-11 c-9 -19 -20 -33 -24 -30 -5 3 -4 12 3 20 6 8 8 14 5 14 -8 0 17 29 25 30
4 0 0 -16 -9 -34z m320 0 c2 -19 0 -32 -4 -30 -8 5 -12 64 -4 64 2 0 6 -15 8
-34z m493 14 c-3 -5 -13 -6 -21 -3 -12 4 -13 8 -3 14 15 9 32 2 24 -11z m-560
-9 c3 -5 0 -13 -6 -17 -7 -4 -9 -3 -5 4 3 5 0 13 -6 15 -9 4 -10 6 -1 6 6 1
14 -3 18 -8z m202 -13 c-3 -8 -6 -5 -6 6 -1 11 2 17 5 13 3 -3 4 -12 1 -19z
m1293 14 c0 -5 -9 -17 -20 -27 -19 -17 -19 -17 -7 9 12 25 27 35 27 18z
m-1880 -6 c0 -2 -7 -7 -16 -10 -8 -3 -12 -2 -9 4 6 10 25 14 25 6z m407 -43
c-3 -10 -5 -2 -5 17 0 19 2 27 5 18 2 -10 2 -26 0 -35z m1553 44 c0 -2 -10
-12 -22 -23 l-23 -19 19 23 c18 21 26 27 26 19z m-1782 -32 c-3 -3 -9 2 -12
12 -6 14 -5 15 5 6 7 -7 10 -15 7 -18z m339 -22 c-3 -10 -5 -4 -5 12 0 17 2
24 5 18 2 -7 2 -21 0 -30z m-80 -45 c-2 -13 -4 -3 -4 22 0 25 2 35 4 23 2 -13
2 -33 0 -45z m51 -48 c0 -32 -1 -33 -8 -10 -4 14 -8 48 -8 75 l0 50 9 -40 c4
-22 8 -56 7 -75z m-343 90 c3 -5 2 -10 -4 -10 -5 0 -13 5 -16 10 -3 6 -2 10 4
10 5 0 13 -4 16 -10z m-25 -20 c0 -5 -5 -10 -11 -10 -5 0 -7 5 -4 10 3 6 8 10
11 10 2 0 4 -4 4 -10z m300 -77 c0 -31 -2 -54 -5 -52 -8 8 -11 118 -3 113 5
-3 8 -30 8 -61z m107 35 c-3 -7 -5 -2 -5 12 0 14 2 19 5 13 2 -7 2 -19 0 -25z
m70 0 c-3 -7 -5 -2 -5 12 0 14 2 19 5 13 2 -7 2 -19 0 -25z m-656 -41 c-10 -9
-11 -8 -5 6 3 10 9 15 12 12 3 -3 0 -11 -7 -18z m2129 -67 c-6 -11 -13 -20
-16 -20 -2 0 0 9 6 20 6 11 13 20 16 20 2 0 0 -9 -6 -20z"/>
<path d="M678 4784 c-51 -27 -61 -78 -32 -175 9 -30 22 -85 29 -124 8 -38 30
-135 50 -215 42 -169 44 -175 100 -497 2 -13 6 -26 8 -30 5 -7 41 -242 51
-323 2 -19 7 -50 11 -67 7 -29 3 -38 -28 -72 -37 -41 -62 -109 -53 -144 3 -11
-2 -34 -11 -50 -10 -21 -14 -48 -11 -88 6 -80 40 -122 140 -171 l75 -37 51
-208 c120 -484 226 -1003 322 -1576 22 -131 40 -241 40 -244 0 -10 -94 64
-114 90 -31 39 -84 46 -132 18 -26 -16 -40 -19 -47 -12 -6 6 -21 11 -33 11
-12 0 -26 6 -31 13 -18 21 -24 67 -13 88 6 11 17 53 24 94 12 67 11 76 -4 90
-9 8 -21 15 -27 15 -6 0 -32 9 -57 21 l-47 21 4 51 c2 31 -1 66 -9 86 -8 18
-14 41 -14 50 0 11 -15 21 -45 30 -42 12 -45 16 -45 47 0 27 -4 34 -22 38 -13
2 -65 12 -117 21 -116 20 -135 29 -127 60 7 28 -7 40 -55 48 -20 3 -65 19
-100 35 l-64 30 -67 -35 c-82 -43 -106 -67 -89 -87 10 -12 1 -26 -47 -78 -32
-34 -64 -73 -71 -85 -17 -32 -14 -94 5 -108 20 -14 7 -44 -31 -69 -14 -9 -25
-25 -25 -36 0 -11 -4 -20 -10 -20 -6 0 -10 -206 -10 -595 0 -424 3 -595 11
-595 6 0 9 7 6 15 -4 8 -2 17 2 20 5 2 11 -4 14 -14 4 -17 16 -19 121 -20 106
-2 142 7 101 23 -20 7 -19 18 4 43 11 12 18 23 15 25 -2 3 14 22 37 42 22 21
41 36 42 35 16 -26 29 -60 25 -65 -4 -3 -9 4 -13 15 -3 12 -11 21 -17 21 -6 0
-6 -6 2 -15 7 -9 10 -19 6 -22 -4 -4 -11 -1 -16 7 -6 8 -10 11 -10 6 0 -5 7
-18 17 -28 15 -17 15 -18 -1 -18 -9 0 -14 -4 -11 -10 3 -5 1 -10 -5 -10 -7 0
-9 8 -5 21 5 16 3 20 -6 16 -8 -2 -13 -10 -11 -17 2 -8 -3 -10 -13 -7 -8 4
-15 2 -15 -3 0 -6 -5 -9 -11 -7 -6 1 -14 -4 -16 -10 -3 -7 2 -13 11 -13 9 0
16 -6 16 -14 0 -10 19 -13 80 -13 51 0 80 4 80 11 0 6 5 4 10 -4 8 -12 13 -13
30 -2 11 7 20 8 20 3 0 -13 134 -11 142 3 5 7 8 6 8 -4 0 -13 1 -13 10 0 6 10
10 11 10 3 0 -9 23 -13 81 -13 61 0 78 3 73 12 -6 10 -5 10 7 1 10 -8 105 -11
322 -12 296 -1 307 0 319 19 7 11 18 20 25 20 7 0 13 5 13 11 0 5 -4 7 -10 4
-5 -3 -18 -1 -27 5 -16 9 -15 10 5 5 17 -5 22 -2 22 11 0 10 3 14 7 10 15 -15
11 -42 -9 -63 -12 -13 -17 -23 -11 -23 6 0 13 7 17 15 7 19 26 19 26 0 0 -21
38 -19 43 3 4 16 5 16 6 0 1 -14 10 -18 45 -18 l43 0 -8 48 c-5 26 -15 101
-24 167 -52 404 -100 709 -191 1205 -14 74 -35 189 -47 255 -12 66 -23 108
-25 93 -4 -33 -22 -38 -22 -5 0 12 -5 29 -11 37 -8 11 -9 1 -6 -40 l5 -55 -12
40 -13 40 -7 -29 c-4 -16 -2 -62 5 -103 6 -40 10 -76 7 -78 -9 -9 -39 175 -33
196 4 13 3 19 -3 16 -5 -4 -9 4 -8 16 0 12 -7 49 -16 82 -27 95 -110 486 -105
492 3 2 15 -38 27 -89 33 -146 40 -168 51 -168 5 0 7 11 3 24 -3 13 -1 27 4
30 15 9 21 -4 24 -57 2 -28 9 -51 19 -58 9 -6 15 -22 13 -38 -2 -14 2 -6 9 19
l13 45 8 -55 c5 -30 10 -50 13 -43 2 7 -5 59 -16 115 -11 57 -36 195 -56 308
-19 113 -44 251 -55 308 -28 147 -23 166 10 37 30 -120 38 -123 16 -7 -12 62
-12 71 0 61 8 -6 14 -23 15 -38 0 -14 7 -42 15 -61 l14 -35 -4 47 c-2 27 0 45
6 42 5 -3 6 6 3 23 -5 21 -4 24 4 13 9 -12 11 -11 11 8 0 12 7 25 15 28 25 10
65 -5 66 -24 0 -13 2 -12 9 5 5 12 15 25 22 30 18 11 38 58 38 90 0 14 12 51
26 81 56 118 -1 226 -150 286 -58 23 -62 27 -81 77 -36 94 -195 721 -215 849
-7 41 -20 111 -30 155 -10 44 -24 118 -30 165 -25 184 -43 211 -156 235 -85
18 -102 18 -136 -1z m194 -28 c36 -17 50 -42 73 -124 6 -21 5 -21 -20 -10 -24
11 -25 15 -20 50 5 30 4 38 -8 38 -9 0 -18 9 -22 19 -6 21 -32 29 -121 37 -59
6 -62 5 -83 -24 -24 -34 -28 -50 -7 -33 10 8 16 8 23 -1 17 -24 12 -56 -12
-72 -23 -15 -23 -14 -29 28 -13 88 19 119 119 113 39 -2 87 -12 107 -21z m-92
-84 c0 -15 -2 -15 -10 -2 -13 20 -13 33 0 25 6 -3 10 -14 10 -23z m120 18 c0
-5 -5 -10 -11 -10 -5 0 -7 5 -4 10 3 6 8 10 11 10 2 0 4 -4 4 -10z m-60 -20
c0 -5 -2 -10 -4 -10 -3 0 -8 5 -11 10 -3 6 -1 10 4 10 6 0 11 -4 11 -10z m-93
-203 c-2 -7 0 -23 5 -36 5 -15 4 -28 -3 -37 -14 -17 -33 -18 -22 -1 11 18 12
37 2 37 -5 0 -9 9 -9 21 0 13 -4 18 -12 13 -7 -4 -8 -3 -4 5 4 6 12 8 18 5 7
-5 9 -2 5 8 -3 9 -3 19 1 22 8 9 24 -22 19 -37z m28 -95 c-1 -15 -7 -36 -13
-47 -14 -25 -16 -11 -2 16 7 13 7 19 0 19 -5 0 -10 -6 -11 -12 0 -10 -2 -10
-6 0 -4 10 22 52 32 52 1 0 1 -13 0 -28z m183 -58 c-4 -3 -12 5 -18 18 -12 22
-12 22 6 6 10 -10 15 -20 12 -24z m42 -25 c0 -6 -4 -7 -10 -4 -5 3 -10 11 -10
16 0 6 5 7 10 4 6 -3 10 -11 10 -16z m-195 -86 c5 -34 3 -43 -8 -43 -18 0 -25
17 -21 53 2 19 -1 25 -9 20 -7 -4 -6 1 2 11 18 22 28 11 36 -41z m25 -62 c0
-6 -9 -9 -19 -8 -11 0 -17 5 -15 9 7 11 34 10 34 -1z m3 -64 c7 4 6 -1 -2 -10
-15 -18 -26 -23 -16 -7 3 6 1 10 -4 10 -6 0 -11 12 -10 28 l1 27 10 -28 c6
-16 14 -24 21 -20z m124 -24 c-3 -10 -5 -4 -5 12 0 17 2 24 5 18 2 -7 2 -21 0
-30z m-121 -39 c-3 -8 -2 -14 2 -14 4 0 9 -12 10 -26 1 -15 8 -39 16 -55 10
-20 11 -30 3 -38 -6 -6 -7 -11 -1 -11 5 0 10 -20 10 -45 1 -25 -2 -45 -6 -45
-11 0 -43 148 -37 176 2 13 1 24 -4 24 -4 0 -6 12 -3 26 3 18 1 23 -7 18 -8
-4 -9 -3 -5 5 10 15 29 3 22 -15z m162 -105 c-3 -8 -7 -3 -11 10 -4 17 -3 21
5 13 5 -5 8 -16 6 -23z m34 6 c3 -13 1 -22 -3 -19 -9 5 -13 44 -5 44 2 0 6
-11 8 -25z m28 4 c0 -6 -4 -7 -10 -4 -5 3 -10 11 -10 16 0 6 5 7 10 4 6 -3 10
-11 10 -16z m-187 -164 c-3 -9 -8 -14 -10 -11 -3 3 -2 9 2 15 9 16 15 13 8 -4z
m33 -163 c-11 -10 -15 4 -8 28 l7 25 3 -23 c2 -13 1 -26 -2 -30z m23 -44 c2
-13 4 -35 5 -51 1 -19 5 -26 15 -22 11 4 11 2 2 -9 -7 -8 -8 -16 -4 -19 13 -8
16 -117 3 -117 -6 0 -8 5 -5 10 3 6 1 10 -5 10 -6 0 -9 4 -6 9 4 5 2 21 -4 36
-7 20 -7 31 1 41 9 11 9 14 0 14 -7 0 -9 5 -6 10 3 6 1 10 -5 10 -7 0 -8 6 0
19 5 11 6 22 2 25 -7 4 -8 37 -3 54 3 8 7 -1 10 -20z m271 -83 c0 -10 -16 -4
-40 16 l-25 20 33 -16 c17 -8 32 -18 32 -20z m-83 -107 c-3 -8 -6 -5 -6 6 -1
11 2 17 5 13 3 -3 4 -12 1 -19z m68 -6 c-3 -3 -11 0 -18 7 -9 10 -8 11 6 5 10
-3 15 -9 12 -12z m-228 -64 c-3 -8 -6 -5 -6 6 -1 11 2 17 5 13 3 -3 4 -12 1
-19z m267 -114 c3 -8 2 -12 -4 -9 -6 3 -10 10 -10 16 0 14 7 11 14 -7z m31 6
c3 -5 1 -10 -4 -10 -6 0 -11 5 -11 10 0 6 2 10 4 10 3 0 8 -4 11 -10z m81 -57
c-4 -4 -11 -1 -16 7 -16 25 -11 35 7 17 9 -9 13 -20 9 -24z m-358 -165 c11
-32 17 -60 12 -63 -4 -3 -13 17 -19 43 -7 26 -15 56 -18 67 -12 41 6 8 25 -47z
m372 20 c0 -4 -4 -8 -9 -8 -6 0 -12 4 -15 8 -3 5 1 9 9 9 8 0 15 -4 15 -9z
m-396 -33 c3 -8 1 -15 -4 -15 -6 0 -10 7 -10 15 0 8 2 15 4 15 2 0 6 -7 10
-15z m416 -30 c0 -8 -2 -15 -4 -15 -2 0 -6 7 -10 15 -3 8 -1 15 4 15 6 0 10
-7 10 -15z m-23 -1237 c-3 -8 -6 -5 -6 6 -1 11 2 17 5 13 3 -3 4 -12 1 -19z
m-1032 -948 c3 -5 1 -10 -4 -10 -6 0 -11 5 -11 10 0 6 2 10 4 10 3 0 8 -4 11
-10z m152 -6 c-3 -3 -12 -4 -19 -1 -8 3 -5 6 6 6 11 1 17 -2 13 -5z m-27 -22
c0 -4 -10 -13 -22 -21 -23 -14 -23 -14 -4 8 20 22 26 25 26 13z m-50 -82 c0
-5 -5 -10 -11 -10 -5 0 -7 5 -4 10 3 6 8 10 11 10 2 0 4 -4 4 -10z m-110 -12
c0 -6 6 -6 15 2 18 15 20 -1 3 -19 -9 -10 -9 -12 -1 -7 6 3 14 3 17 -2 2 -4
-5 -9 -17 -9 -12 -1 -37 -19 -56 -40 -19 -21 -28 -30 -21 -20 11 15 11 20 0
27 -7 4 -20 6 -29 3 -13 -4 -14 -3 -2 5 8 6 22 7 30 3 11 -5 24 1 40 16 23 22
23 23 4 23 -25 0 -26 25 -1 27 10 1 18 -3 18 -9z m-50 -2 c0 -2 -9 -6 -20 -9
-11 -3 -18 -1 -14 4 5 9 34 13 34 5z m-50 -23 c0 -5 -13 -17 -27 -27 l-27 -20
20 27 c18 26 34 35 34 20z m-100 -47 c0 -2 -8 -10 -17 -17 -16 -13 -17 -12 -4
4 13 16 21 21 21 13z m181 -19 c-10 -9 -11 -8 -5 6 3 10 9 15 12 12 3 -3 0
-11 -7 -18z m1189 13 c0 -5 -2 -10 -4 -10 -3 0 -8 5 -11 10 -3 6 -1 10 4 10 6
0 11 -4 11 -10z m-1280 -14 c0 -2 -8 -10 -17 -17 -16 -13 -17 -12 -4 4 13 16
21 21 21 13z m120 0 c0 -2 -8 -10 -17 -17 -16 -13 -17 -12 -4 4 13 16 21 21
21 13z m1167 -38 c-3 -8 -6 -5 -6 6 -1 11 2 17 5 13 3 -3 4 -12 1 -19z m-74
-27 c-4 -3 -11 -10 -14 -14 -3 -4 -12 -1 -19 8 -11 13 -10 14 5 9 13 -5 16 -4
11 4 -5 8 -2 10 9 5 9 -3 13 -9 8 -12z m-115 -21 c-7 -10 -14 -17 -17 -15 -4
4 18 35 25 35 2 0 -1 -9 -8 -20z m83 -7 c13 -16 12 -17 -3 -4 -10 7 -18 15
-18 17 0 8 8 3 21 -13z m129 -70 c0 -8 -7 -10 -17 -6 -10 4 -12 8 -6 10 7 3 9
12 6 21 -4 15 -3 15 6 2 6 -8 11 -20 11 -27z m-245 -22 c-6 -5 -25 10 -25 20
0 5 6 4 14 -3 8 -7 12 -15 11 -17z m32 23 c-3 -3 -12 -4 -19 -1 -8 3 -5 6 6 6
11 1 17 -2 13 -5z m219 -62 c-1 -15 1 -31 5 -37 4 -5 10 -41 14 -80 6 -64 4
-71 -14 -83 -13 -7 -21 -8 -21 -2 0 5 5 10 10 10 6 0 10 7 10 16 0 8 -4 12
-10 9 -7 -4 -7 3 0 22 10 27 9 27 -6 8 l-16 -20 4 20 c2 11 7 23 11 26 5 4 1
22 -9 40 -15 30 -15 33 -1 20 19 -15 23 -1 5 17 -9 9 -9 12 0 12 8 0 9 7 2 26
-13 33 -13 34 4 28 9 -3 14 -16 12 -32z m-288 8 c-7 -10 -14 -17 -17 -15 -4 4
18 35 25 35 2 0 -1 -9 -8 -20z m-8 -39 c0 -6 -5 -13 -11 -16 -5 -4 -8 -12 -6
-18 2 -7 -11 -22 -28 -34 -18 -12 -35 -31 -38 -43 -4 -15 -2 -19 6 -12 7 5 21
12 32 16 16 6 15 3 -5 -17 -14 -13 -28 -22 -32 -20 -4 2 -12 -5 -18 -14 -9
-15 -9 -14 -5 8 4 14 7 33 9 42 1 10 8 23 14 29 7 7 12 19 13 28 0 10 2 11 6
3 2 -7 9 -13 15 -13 6 0 8 6 5 14 -3 8 2 23 11 35 18 22 32 27 32 12z m-245
-41 c-3 -5 -12 -10 -18 -10 -7 0 -6 4 3 10 19 12 23 12 15 0z m50 0 c-3 -5
-12 -10 -18 -10 -7 0 -6 4 3 10 19 12 23 12 15 0z m-786 -55 c0 -5 -4 -3 -9 5
-5 8 -9 22 -9 30 0 16 17 -16 18 -35z m874 29 c-2 -6 -18 -8 -35 -6 -24 4 -29
2 -23 -9 5 -8 5 -11 0 -7 -4 4 -17 3 -28 -3 -15 -9 -18 -8 -12 2 6 9 2 11 -13
7 -32 -9 -27 0 9 14 38 16 108 17 102 2z m-946 -48 c17 -18 17 -18 -2 -9 -11
6 -26 8 -32 6 -7 -3 -13 0 -13 7 0 6 5 8 11 4 8 -5 8 -1 0 14 -16 29 -13 41 4
17 8 -11 22 -28 32 -39z m-52 15 c-6 -6 -18 -4 -30 6 -16 13 -17 15 -2 10 10
-4 17 -1 17 5 0 9 3 9 12 0 8 -8 8 -15 3 -21z m93 -26 c-3 -3 -9 2 -12 12 -6
14 -5 15 5 6 7 -7 10 -15 7 -18z m902 -14 c0 -6 -4 -13 -10 -16 -5 -3 -10 1
-10 9 0 9 5 16 10 16 6 0 10 -4 10 -9z m73 -16 c-3 -9 -8 -14 -10 -11 -3 3 -2
9 2 15 9 16 15 13 8 -4z m414 -37 c-2 -13 -4 -5 -4 17 -1 22 1 32 4 23 2 -10
2 -28 0 -40z m-533 18 c-7 -18 -25 -17 -31 1 -2 6 4 13 14 15 23 5 25 4 17
-16z m-24 -26 c8 -5 11 -10 5 -10 -5 0 -17 5 -25 10 -8 5 -10 10 -5 10 6 0 17
-5 25 -10z m-30 -24 c0 -23 -16 -27 -17 -5 -1 10 2 19 8 19 5 0 9 -6 9 -14z
m480 4 c0 -5 -5 -10 -11 -10 -5 0 -7 5 -4 10 3 6 8 10 11 10 2 0 4 -4 4 -10z
m-1115 -10 c3 -5 1 -10 -4 -10 -6 0 -11 5 -11 10 0 6 2 10 4 10 3 0 8 -4 11
-10z m656 -13 c-10 -9 -11 -8 -5 6 3 10 9 15 12 12 3 -3 0 -11 -7 -18z m-521
9 c0 -3 -4 -8 -10 -11 -5 -3 -10 -1 -10 4 0 6 5 11 10 11 6 0 10 -2 10 -4z"/>
<path d="M2933 3910 c0 -25 2 -35 4 -22 2 12 2 32 0 45 -2 12 -4 2 -4 -23z"/>
<path d="M2953 3890 c0 -36 2 -50 4 -32 2 17 2 47 0 65 -2 17 -4 3 -4 -33z"/>
<path d="M2922 3810 c0 -19 2 -27 5 -17 2 9 2 25 0 35 -3 9 -5 1 -5 -18z"/>
<path d="M2943 3785 c0 -22 2 -30 4 -17 2 12 2 30 0 40 -3 9 -5 -1 -4 -23z"/>
<path d="M2963 3740 c0 -25 2 -35 4 -22 2 12 2 32 0 45 -2 12 -4 2 -4 -23z"/>
<path d="M2873 3475 c0 -27 2 -38 4 -22 2 15 2 37 0 50 -2 12 -4 0 -4 -28z"/>
<path d="M3013 3430 c0 -25 2 -35 4 -22 2 12 2 32 0 45 -2 12 -4 2 -4 -23z"/>
<path d="M1282 2579 c4 -35 11 -65 14 -68 6 -6 34 27 34 41 0 15 -19 8 -23 -9
-3 -10 -6 -2 -7 17 -2 19 -4 40 -4 47 -1 7 -6 17 -12 23 -8 8 -8 -7 -2 -51z"/>
<path d="M1250 2606 c0 -14 4 -27 8 -30 5 -3 6 8 4 25 -5 35 -12 38 -12 5z"/>
<path d="M1271 2473 l1 -28 7 25 c7 22 9 19 16 -22 4 -27 12 -48 17 -48 6 0 8
-9 5 -19 -2 -10 -1 -25 4 -32 12 -20 23 34 15 76 -6 33 -39 75 -58 75 -4 0 -8
-12 -7 -27z"/>
<path d="M2824 2085 c0 -137 2 -195 3 -128 2 67 2 179 0 250 -1 70 -3 16 -3
-122z"/>
<path d="M1316 2278 c4 -13 7 -31 6 -42 0 -10 7 -20 19 -23 14 -4 19 -12 16
-24 -3 -10 1 -26 9 -36 7 -10 14 -30 14 -44 0 -15 6 -39 14 -53 l14 -27 6 35
c5 25 0 48 -19 89 -14 31 -25 63 -25 72 0 8 -6 18 -14 21 -8 3 -17 16 -20 30
-4 13 -11 24 -17 24 -6 0 -7 -9 -3 -22z"/>
<path d="M1341 2144 c0 -11 3 -14 6 -6 3 7 2 16 -1 19 -3 4 -6 -2 -5 -13z"/>
<path d="M1355 2110 c-3 -5 -1 -10 4 -10 6 0 11 5 11 10 0 6 -2 10 -4 10 -3 0
-8 -4 -11 -10z"/>
<path d="M1232 2085 c0 -16 2 -22 5 -12 2 9 2 23 0 30 -3 6 -5 -1 -5 -18z"/>
<path d="M2984 1880 c0 -63 1 -89 3 -57 2 31 2 83 0 115 -2 31 -3 5 -3 -58z"/>
<path d="M2824 1590 c0 -124 2 -174 3 -112 2 61 2 163 0 225 -1 61 -3 11 -3
-113z"/>
<path d="M2983 1680 c0 -47 2 -66 4 -42 2 23 2 61 0 85 -2 23 -4 4 -4 -43z"/>
<path d="M1582 1710 c0 -19 4 -46 8 -60 6 -20 8 -21 8 -5 1 11 -3 38 -7 60
l-9 40 0 -35z"/>
<path d="M1434 1657 c3 -10 6 -28 7 -40 0 -21 1 -21 10 2 7 19 6 28 -7 40 -15
15 -16 14 -10 -2z"/>
<path d="M1601 1584 c0 -11 3 -14 6 -6 3 7 2 16 -1 19 -3 4 -6 -2 -5 -13z"/>
<path d="M3011 1564 c0 -11 3 -14 6 -6 3 7 2 16 -1 19 -3 4 -6 -2 -5 -13z"/>
<path d="M1470 1543 c0 -18 4 -33 10 -33 5 0 7 -18 4 -42 -2 -24 4 -89 16
-148 14 -76 19 -90 16 -50 -2 30 1 66 6 80 6 14 12 48 14 75 2 37 1 44 -5 25
-8 -23 -9 -22 -10 12 -1 20 -5 38 -9 40 -4 2 -15 19 -25 38 l-17 35 0 -32z
m35 -114 c-5 -16 -4 -19 6 -14 9 6 11 3 6 -9 -4 -10 -8 -25 -8 -34 -2 -26 -17
39 -18 78 0 29 1 32 10 17 6 -9 7 -27 4 -38z"/>
<path d="M3032 1530 c0 -14 2 -19 5 -12 2 6 2 18 0 25 -3 6 -5 1 -5 -13z"/>
<path d="M2983 1495 c0 -27 2 -38 4 -22 2 15 2 37 0 50 -2 12 -4 0 -4 -28z"/>
<path d="M1611 1504 c0 -11 3 -14 6 -6 3 7 2 16 -1 19 -3 4 -6 -2 -5 -13z"/>
<path d="M3025 1415 c-4 -42 -5 -78 -2 -81 2 -3 8 29 12 71 4 42 5 79 2 81 -3
3 -8 -29 -12 -71z"/>
<path d="M2992 1385 c-1 -27 -5 -68 -8 -90 -5 -30 -4 -37 5 -29 8 7 11 38 8
90 -2 52 -4 62 -5 29z"/>
<path d="M1631 1354 c0 -11 3 -14 6 -6 3 7 2 16 -1 19 -3 4 -6 -2 -5 -13z"/>
<path d="M2822 1330 c0 -14 2 -19 5 -12 2 6 2 18 0 25 -3 6 -5 1 -5 -13z"/>
<path d="M2963 1225 c0 -22 2 -30 4 -17 2 12 2 30 0 40 -3 9 -5 -1 -4 -23z"/>
<path d="M2914 1140 c0 -58 1 -81 3 -52 2 28 2 76 0 105 -2 28 -3 5 -3 -53z"/>
<path d="M1530 1192 c0 -11 5 -24 11 -27 6 -4 14 -17 19 -29 9 -21 9 -21 9 2
1 13 -8 35 -19 49 -19 24 -20 24 -20 5z"/>
<path d="M2862 1160 c0 -14 2 -19 5 -12 2 6 2 18 0 25 -3 6 -5 1 -5 -13z"/>
<path d="M1662 1145 c0 -16 2 -22 5 -12 2 9 2 23 0 30 -3 6 -5 -1 -5 -18z"/>
<path d="M2975 1108 c-4 -24 -2 -54 4 -68 8 -21 10 -13 10 43 1 76 -5 87 -14
25z"/>
<path d="M1538 1085 c2 -14 6 -25 8 -25 2 0 4 11 4 25 0 14 -4 25 -9 25 -4 0
-6 -11 -3 -25z"/>
<path d="M1672 1075 c0 -22 6 -62 13 -90 l14 -50 -6 56 c-3 31 -9 71 -13 90
l-8 34 0 -40z"/>
<path d="M2932 1090 c0 -14 2 -19 5 -12 2 6 2 18 0 25 -3 6 -5 1 -5 -13z"/>
<path d="M1540 981 c0 -17 5 -33 10 -36 7 -4 10 6 8 29 -3 43 -18 49 -18 7z"/>
<path d="M2970 1001 c0 -5 5 -13 10 -16 6 -3 10 -2 10 4 0 5 -4 13 -10 16 -5
3 -10 2 -10 -4z"/>
<path d="M1570 995 c0 -6 4 -15 9 -20 5 -6 11 -19 14 -30 5 -20 5 -19 6 1 0
11 -6 29 -14 40 -8 10 -15 14 -15 9z"/>
<path d="M1570 946 c0 -8 -5 -16 -11 -18 -8 -3 -10 -16 -5 -41 6 -30 9 -35 20
-24 10 8 11 16 4 24 -5 7 -7 26 -3 43 4 16 4 30 1 30 -3 0 -6 -6 -6 -14z"/>
<path d="M1570 770 c0 -5 5 -10 11 -10 5 0 7 5 4 10 -3 6 -8 10 -11 10 -2 0
-4 -4 -4 -10z"/>
<path d="M1581 724 c0 -11 3 -14 6 -6 3 7 2 16 -1 19 -3 4 -6 -2 -5 -13z"/>
<path d="M1600 716 c0 -3 11 -26 25 -52 27 -50 31 -79 15 -89 -6 -4 -10 6 -11
22 0 15 -3 22 -6 15 -3 -7 -2 -29 2 -49 l6 -36 15 28 c8 15 14 38 14 51 0 27
-40 114 -52 114 -4 0 -8 -2 -8 -4z"/>
<path d="M4537 649 c7 -7 15 -10 18 -7 3 3 -2 9 -12 12 -14 6 -15 5 -6 -5z"/>
<path d="M1640 463 c0 -36 15 -52 23 -23 3 10 -1 27 -9 37 -12 16 -13 15 -14
-14z"/>
<path d="M1652 382 c-9 -3 -8 -7 2 -18 8 -8 18 -34 22 -59 3 -25 10 -42 15
-39 21 13 -16 124 -39 116z"/>
<path d="M1640 341 c0 -5 5 -13 10 -16 6 -3 10 -2 10 4 0 5 -4 13 -10 16 -5 3
-10 2 -10 -4z"/>
<path d="M1673 165 c16 -57 18 -105 6 -105 -7 0 -9 -3 -5 -7 4 -5 13 -8 19 -8
7 0 13 -10 15 -22 2 -13 7 -23 12 -23 14 0 17 47 4 76 l-12 29 -2 -25 c-1 -14
-6 0 -11 30 -5 30 -14 59 -20 65 -8 7 -10 4 -6 -10z"/>
</g>
</svg>
